<?xml version="1.0" standalone="no"?>
<!DOCTYPE svg PUBLIC "-//W3C//DTD SVG 20010904//EN"
 "http://www.w3.org/TR/2001/REC-SVG-20010904/DTD/svg10.dtd">
<svg version="1.0" xmlns="http://www.w3.org/2000/svg"
 width="618.000000pt" height="618.000000pt" viewBox="0 0 618.000000 618.000000"
 preserveAspectRatio="xMidYMid meet">

<g transform="translate(0.000000,618.000000) scale(0.100000,-0.100000)"
fill="#000000" stroke="none">
<path d="M2814 6127 c-78 -46 -114 -98 -114 -166 0 -35 -44 -66 -122 -89 -58
-16 -115 -22 -273 -28 -173 -5 -210 -10 -275 -31 -62 -20 -125 -55 -150 -82
-3 -4 -45 -42 -95 -85 -49 -44 -99 -88 -110 -98 -11 -10 -54 -46 -95 -81 -133
-110 -211 -198 -304 -340 -21 -32 -57 -72 -79 -88 -44 -32 -141 -143 -196
-223 -93 -139 -151 -301 -151 -423 0 -75 3 -90 34 -151 24 -48 52 -83 99 -124
36 -32 70 -71 75 -88 10 -27 6 -37 -49 -120 -34 -50 -72 -124 -85 -163 -23
-65 -25 -89 -26 -247 0 -111 4 -191 12 -220 6 -25 16 -76 20 -115 5 -38 14
-90 20 -115 6 -25 14 -61 16 -80 3 -19 9 -44 14 -55 5 -11 14 -38 21 -60 31
-101 120 -267 185 -344 69 -81 104 -147 109 -202 12 -130 45 -194 73 -143 11
20 15 14 37 -61 9 -33 34 -105 55 -160 41 -109 98 -316 104 -380 2 -22 15 -60
29 -85 14 -25 45 -104 68 -175 22 -72 49 -146 59 -165 10 -19 24 -51 31 -70
28 -79 124 -268 155 -307 19 -23 37 -57 41 -75 8 -45 35 -82 107 -151 69 -66
172 -137 261 -180 32 -16 70 -37 83 -48 14 -10 41 -24 61 -30 324 -97 426
-113 658 -106 204 7 327 19 453 46 120 25 280 72 343 100 27 11 53 21 59 21 5
0 55 26 110 57 55 32 120 69 144 83 118 67 363 291 427 391 31 46 124 235 156
314 13 31 49 154 62 210 32 133 35 140 66 155 l30 15 7 140 c13 264 27 420 46
490 11 39 26 127 33 197 18 151 31 186 41 107 13 -101 95 -333 112 -316 4 3 8
75 10 159 4 119 1 173 -13 241 -17 84 -17 90 0 102 9 7 17 20 17 28 0 9 11 45
24 79 40 100 54 183 60 339 3 80 11 160 17 177 13 38 7 327 -11 492 -8 80 -11
233 -7 500 5 390 4 410 -35 590 -36 168 -85 275 -185 406 -91 119 -139 164
-233 216 -83 47 -129 58 -159 39 -31 -20 -84 23 -151 125 -66 98 -107 135
-171 155 -62 18 -203 42 -264 44 -73 2 -92 8 -164 51 -31 19 -65 34 -76 34
-11 0 -54 18 -95 40 -89 48 -108 57 -220 103 l-85 36 -106 -8 c-111 -9 -134
-16 -187 -62 -46 -41 -113 -41 -162 0 -77 63 -150 85 -196 58z m211 -1226 c55
-18 138 -37 185 -42 47 -6 108 -15 135 -21 28 -5 91 -13 140 -18 284 -25 319
-31 390 -63 93 -42 138 -70 185 -117 22 -22 45 -40 50 -40 6 0 10 -5 10 -11 0
-12 125 -136 210 -209 29 -25 67 -60 84 -79 17 -19 41 -45 54 -58 12 -13 22
-28 22 -33 0 -6 4 -10 8 -10 5 0 26 -29 47 -65 21 -36 42 -68 47 -71 5 -3 27
-41 49 -85 42 -85 72 -194 88 -324 6 -44 30 -163 55 -265 68 -280 166 -940
166 -1116 0 -66 -35 -365 -50 -424 -5 -19 -14 -71 -20 -115 -6 -44 -19 -120
-30 -170 -10 -49 -26 -124 -34 -165 -18 -98 -88 -274 -138 -352 -46 -72 -141
-174 -180 -194 -40 -21 -120 -18 -150 5 -33 27 -85 127 -97 187 -44 226 -48
325 -25 579 8 90 -18 163 -83 235 -58 65 -107 98 -213 144 -47 20 -148 68
-225 106 -233 115 -315 145 -432 157 -47 5 -57 2 -99 -26 -26 -17 -60 -31 -75
-31 -29 0 -79 19 -79 29 0 13 -149 12 -189 0 -26 -8 -65 -35 -108 -76 -69 -65
-113 -90 -278 -158 -184 -77 -232 -112 -276 -202 -31 -64 -36 -187 -15 -336
27 -188 37 -354 27 -460 -4 -54 -5 -137 0 -184 8 -93 6 -107 -24 -141 -20 -22
-70 -30 -93 -14 -22 15 -129 180 -163 252 l-36 75 -2 187 c-1 103 -5 194 -10
202 -4 8 -52 60 -106 117 -106 110 -122 134 -142 213 -16 63 -59 327 -79 497
-23 190 -30 574 -16 869 7 140 15 390 19 555 l6 300 33 76 c77 180 106 215
372 452 237 210 337 277 507 342 48 18 140 56 203 84 112 49 117 51 195 47 54
-2 113 -14 180 -35z m415 -2912 c111 -17 391 -139 486 -212 71 -54 83 -80 99
-213 8 -65 25 -157 39 -203 56 -182 20 -280 -170 -473 -136 -139 -134 -138
-279 -138 -142 0 -187 16 -272 97 -42 39 -53 56 -53 80 0 46 9 62 42 79 70 36
218 198 218 238 0 14 -10 30 -24 39 -21 14 -63 15 -373 8 -206 -5 -359 -13
-375 -20 -40 -15 -36 -45 12 -97 49 -53 143 -249 136 -280 -8 -31 -102 -113
-161 -140 -28 -13 -76 -26 -107 -30 -47 -5 -64 -3 -102 15 -45 22 -55 34 -130
161 -18 30 -58 95 -90 144 -81 129 -84 144 -58 280 12 62 22 150 22 197 0 77
3 89 33 139 47 79 86 114 158 139 35 13 93 42 129 66 127 83 155 100 181 111
50 23 105 25 173 10 87 -21 151 -19 256 4 47 10 96 17 110 15 14 -2 59 -9 100
-16z"/>
<path d="M3815 3864 c-16 -3 -97 -14 -180 -25 -82 -11 -168 -28 -190 -38 -89
-41 -134 -125 -101 -189 12 -24 16 -62 16 -166 0 -163 12 -227 51 -270 26 -28
28 -29 29 -9 0 23 79 95 118 107 34 11 26 -7 -13 -28 -25 -14 -35 -26 -35 -43
0 -37 54 -55 205 -68 33 -3 73 -7 90 -10 16 -2 55 -7 85 -10 30 -3 74 -8 97
-11 69 -10 104 8 131 67 12 28 22 57 22 65 0 17 5 17 33 3 29 -15 137 -120
137 -134 0 -6 19 -11 43 -12 33 -1 49 4 74 25 l32 27 -18 41 c-25 55 -73 107
-145 158 -121 85 -242 118 -433 120 -73 1 -133 2 -133 4 0 9 30 30 70 50 25
13 57 33 72 44 51 40 267 35 395 -8 72 -25 142 -74 245 -171 98 -93 161 -139
178 -128 27 17 -3 157 -58 274 -42 89 -162 200 -275 256 -51 25 -123 52 -162
61 -68 15 -320 27 -380 18z m235 -459 c117 -25 234 -84 264 -135 20 -35 21
-46 0 -29 -8 7 -41 23 -72 37 -31 13 -82 34 -113 47 -84 36 -170 47 -268 35
-45 -6 -93 -15 -107 -20 -14 -6 -35 -10 -47 -10 -22 1 -22 1 -2 16 11 8 38 20
60 26 22 7 50 19 62 29 30 22 129 24 223 4z m-255 -237 c9 -21 9 -21 -110 -7
-49 6 -105 17 -122 24 -43 18 -44 45 -3 45 17 0 65 13 108 29 42 16 84 31 92
33 12 4 16 -8 21 -51 4 -31 10 -64 14 -73z m233 50 c16 -16 15 -35 -3 -42 -20
-7 -45 3 -45 18 0 13 20 36 30 36 3 0 11 -5 18 -12z"/>
<path d="M2328 3764 c-204 -26 -301 -50 -396 -98 -88 -45 -182 -116 -216 -164
-66 -96 -128 -297 -97 -317 24 -14 59 6 122 71 35 36 84 76 109 89 141 72 345
129 382 106 14 -9 125 -30 162 -31 28 0 -11 -12 -88 -25 -95 -17 -110 -23
-232 -96 -132 -79 -208 -176 -218 -276 -6 -59 16 -77 75 -64 24 6 91 9 149 9
73 -1 120 3 155 15 28 9 91 24 140 33 91 16 145 37 145 54 0 6 -4 10 -8 10 -5
0 -9 33 -9 73 l-1 73 57 -3 c129 -8 157 -11 175 -18 14 -6 17 -5 12 3 -10 17
-2 15 44 -9 49 -26 64 -17 81 45 16 59 4 251 -20 318 -11 29 -24 82 -30 117
-6 35 -16 69 -22 77 -33 40 -202 43 -471 8z m8 -462 c-3 -4 21 -7 52 -5 31 2
71 -1 87 -6 25 -8 18 -9 -41 -10 -138 -2 -262 -36 -346 -97 -27 -19 -54 -34
-62 -34 -8 0 -16 -5 -18 -12 -3 -8 -9 -8 -24 0 -18 10 -16 14 28 54 43 40 137
101 125 81 -3 -4 13 -9 34 -11 29 -2 39 1 39 13 0 8 -7 15 -15 15 -8 0 -15 3
-15 8 0 4 36 8 81 10 44 1 78 -1 75 -6z m-148 -22 c8 0 13 -3 9 -6 -10 -10
-48 7 -40 19 5 8 8 8 11 -1 2 -7 11 -12 20 -12z m-28 -169 c0 -15 12 -45 26
-66 30 -44 21 -56 -35 -49 -20 2 -56 6 -81 8 -25 3 -46 5 -48 5 -10 2 39 69
72 97 49 42 66 43 66 5z m235 3 c12 -12 13 -19 4 -30 -24 -29 -59 -5 -45 31 7
19 21 19 41 -1z"/>
<path d="M2694 3162 c-17 -10 -53 -36 -79 -59 -36 -33 -43 -43 -28 -43 22 0
100 47 127 78 27 30 16 43 -20 24z"/>
<path d="M4198 3083 c12 -2 32 -2 45 0 12 2 2 4 -23 4 -25 0 -35 -2 -22 -4z"/>
<path d="M3630 2637 c0 -4 10 -27 21 -49 27 -53 26 -114 -2 -170 -35 -70 -52
-71 -88 -7 -53 93 -207 113 -324 42 -26 -15 -47 -34 -47 -40 0 -7 -6 -13 -12
-14 -36 -2 35 -18 83 -18 98 -2 165 -29 202 -84 11 -16 18 -17 67 -6 81 17
107 34 140 92 32 56 38 104 19 169 -9 34 -58 104 -59 85z"/>
<path d="M2620 2524 c-16 -42 -11 -104 12 -145 23 -41 119 -112 145 -107 9 2
21 18 27 35 13 39 37 57 93 72 23 6 44 15 47 20 14 23 -115 105 -156 99 -27
-4 -75 -70 -84 -116 -8 -39 -21 -37 -52 9 -21 29 -23 43 -19 97 5 67 2 76 -13
36z"/>
<path d="M3070 2312 c-31 -5 -54 -22 -42 -34 16 -16 111 -22 137 -8 44 24 38
38 -18 42 -29 1 -63 1 -77 0z"/>
<path d="M3255 1934 c-121 -47 -138 -49 -221 -24 -112 33 -144 26 -289 -59
-66 -38 -154 -95 -195 -126 -41 -31 -94 -61 -117 -68 -24 -6 -43 -16 -43 -23
0 -16 38 -40 87 -54 37 -11 50 -10 120 13 138 45 163 49 303 47 181 -4 253 -1
330 11 107 17 245 13 349 -11 92 -20 160 -45 172 -62 17 -25 181 3 209 37 13
15 -4 29 -125 97 -44 25 -109 63 -145 85 -150 93 -298 154 -370 153 -14 -1
-43 -8 -65 -16z"/>
<path d="M5077 2044 c-11 -11 -8 -64 3 -64 14 0 24 50 13 61 -5 5 -12 6 -16 3z"/>
</g>
</svg>
